<svg width="261" height="104" viewBox="0 0 261 104" fill="none" xmlns="http://www.w3.org/2000/svg"><path d="M261 0H0v104h261V0z" fill="#25A161"/><path d="M38.681 53.679V71.88h-4.84V31.677h4.884v17.407h27.196V31.677h4.885v40.248H65.92V53.723H38.68v-.044zm56.108 18.467L77.891 31.677h5.192l13.642 33.091 13.246-33.09h4.929L98.397 72.145H94.79zm24.072-28.54c1.012-2.519 2.42-4.727 4.224-6.583 1.804-1.856 3.961-3.314 6.469-4.374 2.508-1.06 5.237-1.59 8.229-1.59 2.905 0 5.589.486 8.097 1.502 2.509 1.016 4.665 2.43 6.513 4.241 1.848 1.811 3.257 3.976 4.313 6.539 1.012 2.518 1.54 5.346 1.54 8.394 0 3.004-.528 5.743-1.54 8.262-1.012 2.518-2.465 4.727-4.313 6.538-1.848 1.856-4.004 3.27-6.513 4.33-2.508 1.016-5.192 1.546-8.097 1.546-2.904 0-5.589-.486-8.097-1.502-2.508-1.016-4.665-2.43-6.513-4.241-1.848-1.812-3.256-3.976-4.312-6.539-1.013-2.518-1.541-5.346-1.541-8.394 0-2.872.528-5.567 1.541-8.13zm4.796 14.58c.792 1.943 1.848 3.666 3.257 5.08 1.364 1.458 2.992 2.562 4.884 3.402 1.893.84 3.873 1.237 6.029 1.237 2.288 0 4.357-.398 6.249-1.237 1.892-.84 3.476-1.944 4.841-3.402 1.364-1.458 2.376-3.137 3.124-5.125a18.939 18.939 0 001.1-6.362c0-2.342-.396-4.506-1.188-6.45-.792-1.988-1.848-3.667-3.256-5.08-1.365-1.415-2.993-2.52-4.885-3.315-1.892-.795-3.873-1.192-6.029-1.192-2.156 0-4.18.397-6.073 1.193-1.848.795-3.476 1.9-4.84 3.313-1.365 1.414-2.421 3.093-3.213 5.08-.792 1.989-1.188 4.11-1.188 6.451 0 2.297.396 4.418 1.188 6.406zm55.184 13.695h-4.885v-17.23l-14.214-22.974h5.633l11.222 18.38 11.309-18.38h5.325l-14.39 22.974v17.23zm41.938-25.183h-4.973l-4.929-7.643-4.972 7.643h-4.929l9.901-15.286 9.902 15.286zm2.992 12.327h-4.973l-7.921-12.238-7.921 12.238h-4.973l7.921-12.326h9.902l7.965 12.326zm-20.815 0h5.017l-8.361 12.944h-5.017l5.501-8.526 2.86-4.418zM227.16 71.97h-5.545l-8.405-12.945h5.589l.528.84 7.833 12.104zm-18.754 7.151h4.972v-7.157h-4.972v7.157z" fill="#000"/></svg>